<?xml version="1.0" encoding="UTF-8"?>
<svg id="Capa_2" data-name="Capa 2" xmlns="http://www.w3.org/2000/svg" viewBox="0 0 50.96 39.45">
  <defs>
    <style>
      .cls-1 {
        fill: #1dc9a3;
      }
    </style>
  </defs>
  <g id="Capa_1-2" data-name="Capa 1">
    <path class="cls-1" d="M25.33,39.45c-5.12-.02-10.18-.45-15.09-2.08-4.53-1.5-7.6-4.47-8.95-9.01-1.76-5.9-1.73-11.86,.21-17.72C2.92,6.32,5.94,3.51,10.26,2.12,16.53,.09,22.99-.35,29.5,.25c3.42,.32,6.86,.82,10.2,1.6,5.74,1.35,9.13,5.15,10.42,10.86,1.11,4.93,1.15,9.86-.11,14.76-1.45,5.66-5.26,8.94-10.81,10.41-4.55,1.2-9.19,1.59-13.88,1.58Z"/>
  </g>
</svg>